<?xml version="1.0" encoding="utf-8"?>
<!-- Generator: Adobe Illustrator 25.4.1, SVG Export Plug-In . SVG Version: 6.00 Build 0)  -->
<svg version="1.1" id="a1103373-c0cb-4b1c-8083-c3ed8cfec526"
	 xmlns="http://www.w3.org/2000/svg" xmlns:xlink="http://www.w3.org/1999/xlink" x="0px" y="0px" viewBox="0 0 405.8 128"
	 style="enable-background:new 0 0 405.8 128;" xml:space="preserve">
<style type="text/css">
	.st0{fill:#D5AB76;}
</style>
<path class="st0" d="M25.3,104.5L0,38.8h15.7L35,91.9h-6.5L48,38.8h15.5l-25.6,65.6H25.3V104.5z"/>
<path class="st0" d="M116.4,105.5c-4.5,0.1-9-0.9-13-3c-3.7-1.9-6.8-4.9-8.9-8.5c-4.3-7.5-4.3-16.8-0.1-24.3
	c2.1-3.5,5.1-6.4,8.6-8.4c3.8-2.1,8-3.1,12.4-3.1c4.1-0.1,8.3,0.9,11.9,2.9c3.4,1.9,6.2,4.7,8.1,8c2,3.6,3.1,7.6,3,11.7
	c0,0.9-0.1,1.8-0.1,2.7c-0.1,1-0.3,2-0.6,3l-38.8,0.2v-9.8l32.7-0.2l-6.1,4.2c0-2.2-0.4-4.3-1.2-6.4c-0.7-1.6-1.8-3-3.3-4
	c-1.6-1-3.4-1.4-5.2-1.4c-4.1-0.1-7.9,2.2-9.6,6c-1,2.1-1.4,4.4-1.3,6.7c-0.1,2.3,0.4,4.7,1.4,6.8c0.9,1.9,2.3,3.4,4.1,4.4
	c1.9,1.1,4.1,1.6,6.3,1.5c2.1,0,4.1-0.4,6-1.2c1.8-0.8,3.4-2,4.7-3.5l7.9,7.8c-2.2,2.6-4.9,4.6-8.1,5.9
	C123.6,104.9,120,105.5,116.4,105.5z"/>
<path class="st0" d="M140.4,71.4V59.3h34.7v12.2L140.4,71.4L140.4,71.4z M150.5,104.4V40.6h14.3v63.9L150.5,104.4z"/>
<path d="M181.2,104.5V59.3h14.3v45.2H181.2z M195.5,79.7l-5.9-4.7c1.2-5.3,3.2-9.5,6-12.4s6.7-4.4,11.6-4.4c2,0,3.9,0.3,5.7,1
	c1.6,0.6,3.1,1.6,4.3,2.9L208.7,73c-0.6-0.7-1.4-1.2-2.2-1.5c-1-0.4-2.1-0.6-3.2-0.6c-2.1-0.1-4.2,0.7-5.7,2.2
	C196.2,74.6,195.5,76.8,195.5,79.7z"/>
<path d="M238.4,105.4c-3.9,0.1-7.8-1-11.1-3.1s-6-4.9-7.8-8.4c-1.9-3.7-2.9-7.8-2.8-12c-0.1-4.2,0.9-8.4,2.8-12.1
	c1.8-3.4,4.4-6.3,7.7-8.4c3.3-2,7.2-3.1,11.1-3c2.8,0,5.7,0.6,8.2,1.8c2.4,1.1,4.4,2.8,6,4.9c1.5,2.1,2.5,4.5,2.6,7.1v19.5
	c-0.2,2.6-1,5-2.6,7.1c-1.5,2.1-3.6,3.8-5.9,4.9C244.2,104.8,241.3,105.4,238.4,105.4z M241.4,92.5c2.8,0.1,5.4-1,7.3-3
	c1.9-2.1,2.9-4.9,2.8-7.7c0-1.9-0.4-3.7-1.2-5.4c-0.8-1.6-2-2.8-3.5-3.7c-1.6-0.9-3.4-1.4-5.3-1.3c-3.7-0.1-7,1.9-8.8,5.1
	c-1.8,3.4-1.8,7.6,0,11C234.4,90.6,237.8,92.5,241.4,92.5z M250.9,104.5V92.3l2.1-11.1l-2.1-10.9v-11h14v45.2H250.9z"/>
<path d="M289.1,104.5L270,59.3h15.4l13,37.6h-6.8l13.1-37.6h15.1l-19.2,45.1L289.1,104.5z"/>
<path d="M345.9,105.5c-4.5,0.1-9-0.9-13-3c-3.7-1.9-6.8-4.9-8.9-8.5c-4.3-7.5-4.3-16.8-0.1-24.3c2.1-3.5,5.1-6.4,8.6-8.4
	c3.8-2.1,8-3.1,12.4-3.1c4.1-0.1,8.3,0.9,11.9,2.9c3.4,1.9,6.2,4.7,8.1,8c2,3.6,3.1,7.6,3,11.7c0,0.9,0,1.8-0.1,2.7
	c-0.1,1-0.3,2-0.6,3l-38.9,0.2v-9.8l32.7-0.2l-6.1,4.2c0-2.2-0.4-4.3-1.2-6.4c-0.7-1.6-1.8-3-3.3-4c-1.6-1-3.4-1.4-5.2-1.4
	c-4.1-0.1-7.9,2.2-9.6,6c-1,2.1-1.4,4.4-1.4,6.7c-0.1,2.3,0.4,4.7,1.4,6.8c0.9,1.9,2.3,3.4,4.1,4.4c1.9,1.1,4.1,1.6,6.3,1.5
	c2.1,0,4.1-0.4,6-1.2c1.8-0.8,3.4-2,4.7-3.5l7.9,7.8c-2.2,2.6-4.9,4.6-8.1,5.9C353.1,104.9,349.5,105.5,345.9,105.5z"/>
<path d="M374.5,104.5V37h14.3v67.5H374.5z"/>
<path class="st0" d="M396.1,16.3l-0.4-0.2c0-0.1-0.1-0.2-0.1-0.2c0-0.1-0.1-0.1-0.1-0.2c-0.1-0.1-0.2-0.2-0.3-0.2
	c-0.1,0-0.2-0.1-0.3-0.1c-0.1,0-0.3,0-0.4,0c-0.2,0.1-0.4,0.1-0.6,0.2c-0.1,0-0.2,0.1-0.3,0.1c0,0-0.2,0.1-0.4,0.1s-0.4,0.1-0.4,0.1
	c-0.2,0.1-0.5,0.1-0.7,0c-0.1-0.1-0.2-0.1-0.2-0.2c-0.1,0-0.2,0-0.2,0c-0.1,0-0.1,0-0.2,0.1l-0.2,0.2h-0.1c0,0-0.2,0-0.2-0.2
	s-0.1-0.4-0.2-0.6c0,0-0.2-0.3-0.3-0.3c-0.1,0-0.2,0.1-0.3,0.1c-0.1,0-0.4,0.1-0.4,0.1l-0.8-0.6c-0.1-0.1-0.2-0.2-0.3-0.3
	c0-0.1-0.1-0.1-0.1-0.2c0-0.1,0-0.3-0.1-0.4c-0.1,0-0.2-0.2-0.3-0.2c-0.1,0-0.2,0-0.3,0c-0.1,0-0.2,0.1-0.4,0.1
	c-0.1,0-0.2,0-0.3-0.1c-0.1-0.1-0.3-0.2-0.4-0.3s-0.3-0.2-0.3-0.3c-0.1-0.1-0.2-0.2-0.4-0.2c0,0-0.2,0-0.3,0s-0.2,0.1-0.2,0.1
	s-0.2,0.1-0.2-0.1s-0.2-0.9-0.2-1s0-0.7,0-0.8s0-0.7,0-0.9s0-0.4,0-0.5c0-0.2,0-0.3-0.1-0.5L385,8.6c0,0-0.1,0.1-0.1,0
	c-0.1-0.1-0.2-0.2-0.3-0.2c-0.1,0-0.2-0.1-0.2-0.2c0-0.1-0.1-0.1-0.1-0.2c0-0.1,0-0.1,0-0.2s0.1-0.1,0.1-0.2s0-0.1,0.1-0.2
	c0,0,0.1-0.1,0.2-0.1h0.2c0.1,0,0.2,0,0.3-0.1c0.1,0,0.1,0,0.1-0.1c0.1-0.1,0.1-0.2,0.1-0.3c0-0.2,0.1-0.4,0.2-0.5s0-0.2,0.1-0.3
	V5.9l0.1-0.2V5.3l-0.1-0.1c-0.1,0-0.1-0.1-0.2-0.1c-0.1-0.1-0.4-0.2-0.5-0.3s-0.2-0.2-0.2-0.2l-0.2-0.2h-0.1l-0.2-0.1
	c-0.1,0-0.2,0-0.3,0l-0.5,0.2c0,0-0.8,0.1-0.9,0.1h-0.5c-0.1,0-0.1,0-0.3-0.1c-0.1-0.1-0.3-0.2-0.4-0.3c-0.1-0.1-0.1-0.1-0.2-0.2
	s-0.3-0.2-0.4-0.2s-0.2,0.1-0.4,0c-0.2-0.1-0.4-0.1-0.6-0.1h-0.3c0,0,0,0-0.1,0.1L379.3,4l-0.1,0.1c0,0-0.1,0.2-0.2,0.2
	s-0.3,0-0.4-0.1s-0.6-0.5-0.7-0.5s-0.4-0.4-0.4-0.4c-0.1-0.1-0.2-0.1-0.4-0.1c-0.2-0.1-0.3,0-0.4,0c-0.2-0.1-0.4-0.1-0.6-0.2
	c-0.2-0.1-0.4-0.3-0.5-0.4l-0.3-0.5c-0.1-0.1-0.1-0.2-0.2-0.3l-0.2-0.2c0,0-0.1,0-0.1-0.1s0-0.1-0.2-0.2s-0.2-0.1-0.3-0.2
	S374.1,1,374,0.9s-0.1-0.1-0.2-0.2c0-0.1-0.1-0.2-0.1-0.2c0-0.5-0.1-0.5-0.2-0.5s-0.2,0.1-0.2,0.2s-0.1,0.2-0.1,0.3
	s-0.1,0.1-0.2,0.2s-0.2,0.2-0.3,0.2c-0.2,0-0.3,0.1-0.5,0.1c-0.1,0-0.4,0.1-0.5,0.1l-0.3,0.1l-0.3,0.1c-0.1,0-0.1,0.1-0.2,0.1
	c-0.3,0-0.5,0.1-0.8,0.2c-0.1,0.1-0.5,0.3-0.5,0.4c-0.1,0.1-0.2,0.2-0.2,0.4c0,0.1-0.2,0.6-0.3,0.7s-0.1,0.4-0.2,0.6
	c-0.1,0.2-0.2,0.4-0.3,0.5l-0.5,0.4l-0.4,0.3C367.6,5,367.5,5,367.4,5c-0.2,0-0.4,0-0.7,0c-0.1,0.1-0.2,0.1-0.2,0.2
	c-0.1,0.1-0.2,0.2-0.2,0.3c-0.1,0.1-0.1,0.2-0.2,0.2c-0.1,0.1-0.2,0.2-0.2,0.3c0,0,0,0-0.1,0s-0.2,0-0.3,0c-0.1,0,0,0.1-0.2,0
	c-0.1,0-0.2-0.1-0.3-0.1c0,0-0.2,0-0.3-0.2c0-0.1-0.1-0.2-0.1-0.2c0-0.1,0-0.2-0.1-0.3S364,5.1,364,5.1c-0.2,0.1-0.4,0.2-0.5,0.3
	c0,0-0.3,0.3-0.4,0.4s-0.2,0.2-0.2,0.4c-0.1,0.2-0.2,0.4-0.4,0.6c0,0-0.1,0.2-0.2,0.3C362,7.2,362,7.3,362,7.4s-0.1,0.5-0.1,0.7
	c0,0.2,0.1,0.3-0.1,0.3s-0.4-0.1-0.5-0.2s-0.4-0.3-0.5-0.4s-0.5-0.4-0.5-0.5c-0.1-0.2-0.3-0.4-0.5-0.6c-0.1-0.1-0.2-0.2-0.4-0.3
	c-0.1,0-0.2-0.1-0.3-0.1s-0.2,0.2-0.2,0.4c0,0.2-0.1,0.4-0.1,0.6c0,0-0.1,0.3-0.1,0.4s-0.2,0.4-0.2,0.4s-0.2,0.1-0.3,0.1
	s-0.1,0-0.2-0.1s-0.1-0.3-0.1-0.4s0-0.2,0-0.3s0.1-0.2,0-0.3c-0.1-0.1-0.2-0.2-0.2-0.4c0-0.2-0.1-0.1-0.2-0.3s-0.1-0.3-0.1-0.4
	s0-0.3-0.1-0.4c0,0-0.3-0.3-0.5-0.1c-0.1,0.1-0.3,0.3-0.4,0.5c0,0.1-0.1,0.3-0.1,0.4s-0.1,0.2-0.2,0.2l-0.6,0.2
	c-0.1,0.1-0.2,0.2-0.2,0.4c0,0.2,0,0.4,0,0.7c-0.1,0.1,0,0.3-0.1,0.4s-0.3,0.2-0.5,0.2h-0.4c-0.1,0-0.3,0-0.4-0.1
	c-0.1,0-0.3-0.1-0.4-0.1s-0.2,0-0.4-0.1c0,0-0.2-0.1-0.2-0.2c0-0.1-0.1-0.3-0.1-0.4c0-0.2-0.1-0.6-0.1-0.8s-0.1-0.2-0.2-0.3
	c-0.1-0.1-0.2-0.2-0.3-0.2c-0.2-0.1-0.4-0.2-0.7-0.3c-0.3,0-0.5,0-0.6,0c-0.2,0-0.5,0-0.7,0h-0.9c-0.2,0-0.5,0-0.6,0.2
	s-0.1,0.4-0.2,0.5s0,0.3,0,0.3c0,0.1-0.1,0.3-0.2,0.4s-0.1,0.2-0.2,0.3L347.9,8c-0.1,0.1-0.5,0.4-0.5,0.5s1.1,1.8,1.1,1.8
	s0.6,0.7,0.7,0.8s0.4,0.1,0.6,0.4c0.2,0.2,0.3,0.4,0.5,0.6c0,0.1,0.3,0.4,0.4,0.5c0,0.1,0,0.2,0,0.3s0,0.4,0,0.5s0.1,0.5,0.2,0.5
	s0.2,0,0.4,0c0.1,0,0.1,0,0.2-0.1c0.1,0,0.2-0.1,0.2-0.2c0.1-0.1,0.1-0.3,0.2-0.4c0-0.1,0-0.2,0.1-0.3s0.3-0.2,0.3-0.1s0,0,0.1,0.2
	s0.2,0.5,0.2,0.5l0.3,0.1c0,0,0.2,0,0.3,0.1s0.2,0,0.2,0.3c0,0.2,0,0.3,0,0.5s0,0.4-0.1,0.7c0,0.1-0.1,0.3-0.2,0.3s-0.4,0.1-0.4,0.1
	c-0.1,0-0.3,0.1-0.4,0.2c-0.1,0.1-0.2,0.1-0.1,0.2c0,0.1,0,0.3,0.1,0.3s0.2,0,0.2,0c0.1,0.1,0.1,0.1,0.1,0.2s0,0.2,0,0.3
	c-0.1,0.2-0.2,0.4-0.3,0.6c0,0-0.1,0-0.2,0.1s-0.2,0.2-0.1,0.4c0.1,0.1,0.2,0.2,0.3,0.2c0.1,0.1,0.2,0.1,0.2,0.2s0.1,0.3,0.1,0.4
	s0.1,0.3,0.2,0.5s0.1,0.3,0.2,0.3s0.3,0.1,0.4,0.1s0.1,0.1,0.2,0.2s0.1,0.2,0.2,0.4s0.3,0.5,0.4,0.7c0.2,0.2,0.4,0.4,0.7,0.5
	c0.2,0.1,0.5,0.2,0.7,0.3c0.2,0,0.5,0.1,0.7,0.1s0.3,0.1,0.3,0s0.1-0.1,0.1-0.1c0.1,0,0.2,0.1,0.2,0.1v0.1c0,0.1,0,0.1,0,0.2
	c0.2,0.1,0.4,0.2,0.6,0.3c0.1,0,0.4,0.2,0.5,0.3c0.1,0.1,0.2,0.2,0.3,0.3c0,0.1,0,0.2,0.2,0.2c0.1,0,0.2,0,0.3,0
	c0.2,0,0.2,0,0.2-0.2s0-0.2,0.1-0.4c0-0.1,0.1-0.2,0.1-0.3c0.1-0.1,0.1-0.3,0.2-0.3s0,0,0.1-0.1s0.3-0.1,0.4-0.2
	c0.3-0.2,0.7-0.3,1-0.4s0.5-0.2,0.8-0.4c0.2-0.1,0.4-0.2,0.7-0.2c0.2,0,0.4,0,0.5,0.1c0.2,0.1,0.5,0.3,0.7,0.4
	c0.1,0.1,0.2,0.1,0.3,0.3s0,0.1,0.2,0.4s0.3,0.4,0.4,0.4s0,0,0.2,0.1s0.3,0.1,0.3,0.2c0.1,0.1,0.1,0.2,0.2,0.3
	c0.1,0.1,0.2,0.2,0.4,0.2c0.1,0.1,0-0.1,0.1,0.1c0.1,0.3,0.2,0.5,0.2,0.8c0,0.1-0.2,0.4-0.2,0.4s-0.1,0.2-0.2,0.2s-0.3,0-0.4,0
	s-0.3,0-0.3,0s0,0-0.1,0.1s-0.2,0.1-0.2,0.2s-0.1,0.1-0.1,0.2s-0.1,0.1,0,0.2s0.2,0.1,0.4,0.2c0.1,0.1,0.3,0.1,0.4,0
	c0.2-0.1,0.1-0.2,0.3-0.1s0.4,0.4,0.6,0.4c0.2,0.1,0.3,0.2,0.4,0.3c0.1,0.1,0.2,0.3,0.2,0.4c0,0.2,0.2,0.4,0.4,0.6
	c0.3,0.2,0.5,0.4,0.8,0.6c0.2,0,0.3,0,0.5,0s0.3,0.1,0.4,0.3c0.1,0.1,0.2,0.3,0.2,0.5s0,0.4-0.1,0.6c0,0.1-0.1,0.3-0.3,0.3
	c-0.2,0.1-0.3,0.2-0.5,0.2s-0.4,0.1-0.5,0.2s-0.2,0.1-0.3,0.3c-0.1,0.2-0.1,0.4,0,0.6s-0.2,0.5-0.3,0.6s-0.5,0.2-0.6,0.3
	c-0.2,0.2-0.3,0.3-0.4,0.5c-0.1,0.2,0,0.3-0.3,0.3s-0.8-0.1-0.9-0.1c-0.2-0.1-0.3-0.2-0.5-0.3c-0.1-0.2-0.4-0.3-0.6-0.2
	c-0.1,0.1-0.3,0.2-0.4,0.2s-0.6-0.1-0.7-0.1s-0.4-0.2-0.5-0.2l-0.5-0.1c0,0-0.2-0.1-0.3,0c-0.1,0-0.1,0.1-0.2,0.1
	c0,0-0.4-0.2-0.5-0.2s-0.1,0-0.1,0.2c0.1,0.3,0.3,0.5,0.5,0.7c0.1,0.2,0.3,0.4,0.3,0.5c-0.1,0.2-0.3,0.3-0.4,0.4
	c-0.1,0.1-0.3,0.2-0.5,0.3c0,0,0-0.1-0.1-0.1c-0.1,0.1-0.2,0.2-0.2,0.3s-0.1,0.2-0.2,0.3s-0.3,0.1-0.3,0.2s0,0.2,0.2,0.3l0.4,0.2
	l0.9,0.4c0.2,0,0.4,0.1,0.6,0.2c0.1,0.1,0.8,1,0.9,1s0.9,0.8,1.1,1s0.6,0.4,0.8,0.5c0.2,0.1,0.4,0.3,0.5,0.4
	c0.2,0.2,0.5,0.4,0.7,0.5c0.1,0,0.2,0.1,0.4,0.2c0.1,0.1,0.3,0.3,0.4,0.5s0.3,0.3,0.5,0.4c0.2,0.1,0.4,0.1,0.6,0.1s0.4,0,0.6,0
	c0.1,0,0.1,0,0.4,0.1c0.2,0.1,0.4,0.3,0.6,0.4c0.1,0.1,0.2,0.1,0.3,0.2c0.1,0,0.3,0.1,0.4,0.2c0.1,0.2,0.3,0.2,0.3,0.3s0,0.2,0,0.3
	c0,0-0.2,0-0.3,0.1c-0.1,0.3-0.1,0.6-0.1,0.8c0,0.1,0,0.3,0,0.4c0,0,0.1,0.2,0.2,0.3s0.3,0.5,0.3,0.6c0.1,0.2,0.2,0.4,0.3,0.6
	c0.1,0.1,0,0.1,0.2,0.1s0.3,0,0.4,0.1s0.1,0.2,0.2,0.3s0.2,0.2,0.4,0.3c0.1,0,0.3,0,0.4,0s0.2,0,0.3,0c0.1,0,0.3,0.1,0.4,0.2
	c0.1,0.2,0.2,0.5,0.3,0.7c0.1,0,0.2,0.1,0.2,0.2c0,0.1,0.1,0.2,0.1,0.3c0.1,0,0.1,0,0.2,0.1c0.1,0,0-0.2,0.1,0s0,0.8,0,1
	c0.2,0.6,0.5,1.1,0.9,1.6c0.1,0.1,0.3,0.2,0.5,0.3s0.4,0.2,0.5,0.3l2.1,2.4l0.9,0.8h0.5c0.1,0,0.2,0,0.2,0.1s0,0.1,0,0.3
	c0,0.1,0.1,0.2,0.1,0.3l0.6,1.3c0.1,0.1,0.2,0.3,0.4,0.4l0.3,0.2c0.1,0,0.2,0,0.3,0c0.1,0,0.3,0,0.3,0c0,0.1,0,0.2,0,0.2
	c0,0.1,0,0.1,0,0.2c-0.1,0.3-0.1,0.5-0.1,0.8c0,0.2,0.1,1,0.2,1s0.1,0.4,0.1,0.4c0.1,0.1,0.1,0.2,0.2,0.3c0,0,0.3,0.1,0.4,0.2
	s0.1,0.1,0.1,0.2s-0.1,0.2,0,0.3s0,0.2,0.1,0.4s0.1,0.3,0.3,0.4c0.1,0,0.3,0,0.4,0s0.2-0.1,0.3-0.3c0-0.1,0.1-0.2,0.1-0.3
	c0,0,0-0.1,0.1-0.2c0.1-0.1,0.3-0.1,0.4-0.1s0.1,0.1,0.1,0.2s0,0.4,0.1,0.5s0,0.1,0.1,0.2s0.1,0.1,0.2,0.2s0.1,0.2,0.2,0.3
	c0,0.1,0.1,0.2,0.2,0.3c0.1,0,0.2,0.1,0.3,0.1l0.3,0.1h0.4l0.4,0.3c0,0,0-0.1,0.1,0.2c0.1,0.1,0.1,0.3,0.1,0.5c0,0-0.1,0.2,0,0.3
	c0.2,0.1,0.3,0.2,0.5,0.3c0.3,0.1,0.5,0.2,0.8,0.4l0.5,0.3c0.1,0.1,0.4,0.2,0.5,0.3s0.2,0.1,0.2,0.2c0,0.1,0,0.1,0,0.2
	c0,0.2,0,0.4,0,0.5s-0.1,0.2-0.1,0.3c-0.1,0.1-0.2,0.2-0.3,0.2c-0.2,0-0.4,0.1-0.6,0.1c-0.2,0.1-0.4,0.1-0.4,0.2s0,0.1-0.1,0.2
	c0,0.1-0.1,0.1-0.1,0.1c-0.1,0,0,0.1-0.2,0.1s-0.2,0-0.2,0.1s0,0.2,0,0.2c0.1,0.1,0.2,0.1,0.4,0.2c0.1,0.1,0.2,0,0.2,0.2
	c0.1,0.2,0.2,0.4,0.2,0.6c0,0.1,0.1,0.3,0.2,0.4s0.1,0.2,0.2,0.2c0.1,0.1,0.2,0.3,0.3,0.4c0,0.1,0.1,0.2,0.2,0.2s0.2,0,0.3,0
	c0.1,0,0.2,0,0.3,0.1c0.1,0,0.3,0.3,0.4,0.4s0.2,0.1,0.4,0.2c0.1,0,0.4,0.1,0.4,0.2c0.1,0.1,0.1,0.2,0.2,0.4c0,0.1,0.1,0.2,0.1,0.3
	c0,0.1,0,0.2,0.1,0.3l0.3,0.2l0.1,0.2c0,0.1-0.1,0.2-0.2,0.3c0,0-0.4,0.1-0.5,0.2s-0.1,0.2-0.1,0.3c0,0.1,0,0.3,0,0.4
	s-0.2,0.2-0.3,0.3c-0.2,0.1-0.5,0.2-0.6,0.2s-0.2,0.1-0.2,0.2c-0.1,0.1-0.1,0.2-0.1,0.3c0,0.2,0,0.3,0,0.4s0,0.1,0.2,0.1
	s0.5,0.2,0.5,0.2c0,0.1,0.1,0.2,0.1,0.3c0,0.1-0.1,0.1-0.1,0.2c-0.1,0-0.2,0-0.2,0.2c-0.1,0.3-0.1,0.5-0.1,0.8
	c0,0.1-0.1,0.7-0.1,0.7c0,0.2,0,0.4,0,0.6c0,0.1-0.2,0.2-0.2,0.3s0,0.2,0,0.3c0,0.1,0,0.2-0.1,0.3c-0.1,0.1-0.2,0.2-0.2,0.4
	c0,0.1-0.1,0.2-0.1,0.3c0,0.1-0.1,0.2-0.2,0.2s-0.2,0.1-0.2,0.2s-0.2,0.2-0.2,0.3s-0.1,0.1-0.1,0.2s0,0.2,0.1,0.3c0,0.1,0,0.1,0,0.2
	c-0.1,0.3-0.2,0.5-0.3,0.7c-0.1,0.1-0.2,0.1-0.2,0.3c0,0.1,0,0.2,0,0.4c0,0.1,0.1,0.2,0,0.3c0,0.1-0.2,0.1-0.1,0.2s0.1,0.2,0.3,0.3
	s0.2,0,0.3,0.1s0.1,0.1,0.1,0.2s0,0.2,0,0.4c0,0.1,0,0.1,0,0.2s-0.1,0.1,0,0.2s0.1,0.1,0.1,0.2s-0.1,0.1-0.1,0.2s0,0.2,0.2,0.3
	c0.2,0.1,0.4,0.2,0.5,0.3c0.1,0,0-0.1,0.2,0.3s0.4,1.3,0.5,1.4c0,0.2,0,0.4,0,0.6c0,0.1,0,1,0,1.2c-0.1,0.3-0.2,0.7-0.4,1
	c-0.1,0.2-0.8,1.4-0.8,1.6c-0.1,0.3-0.1,0.5-0.1,0.8c0.1,0.3,0.1,0.6,0.2,0.9c0.1,0.2,0.2,0.1,0.2,0.3c0,0.2,0.1,0.4,0.1,0.6
	c0,0.1,0,0.2,0,0.2c0,0.1,0,0.1,0,0.2s-0.1,0.1,0,0.2s0.1,0.2,0.1,0.2c0,0.1-0.1,0.2,0,0.3s0.1,0.2,0,0.2s-0.2,0-0.1,0.2
	s0.1,0.3,0.1,0.4s-0.4,0.2-0.3,0.5s0.1,0.4,0,0.4s-0.8,0.5-0.8,0.5s0,0.3-0.1,0.3s-0.2,0-0.3-0.2s0-0.2-0.1-0.2s-0.2,0-0.3-0.1
	s-0.2-0.2-0.3-0.2c-0.1,0-0.2,0.1-0.3,0.1c-0.1,0-0.3,0-0.4,0.1c-0.1,0-0.1,0.1-0.1,0.1s-0.1,0-0.2,0s-0.3-0.1-0.3,0
	s-0.1,0.2-0.2,0.2c-0.1,0.1-0.1,0.1-0.2,0.2c0,0.1-0.2,0.1-0.2,0.2s-0.1,0-0.1,0.1s0.1,0.2,0,0.3s-0.2,0-0.2,0s0,0.2-0.1,0.2
	s-0.2,0-0.3,0.1c0,0.1-0.1,0.2-0.3,0.2c-0.1,0-0.2-0.1-0.3,0c-0.1,0.1-0.1,0.1-0.2,0.1s-0.2-0.1-0.4-0.1S383,97,382.9,97
	s-0.3-0.1-0.4-0.1s-0.2-0.1-0.2,0.1s-0.1,0.3-0.2,0.4c0,0.1-0.1,0.2-0.2,0.3c-0.2,0.1-0.1,0.3-0.4,0.2s-0.3-0.1-0.4,0
	s-0.3,0.1-0.4,0.1c-0.2,0-0.3,0-0.5,0c0,0-0.2,0-0.2-0.1s-0.1-0.1-0.1,0s-0.1,0.2-0.2,0.1s-0.5,1-0.7,1s-0.1,0.1-0.2,0.2
	s-0.2-0.1-0.2,0s-0.1,0.1,0,0.3c0.1,0.2,0.2,0.4,0.3,0.6c0,0.1,0.1,0.1-0.1,0.2s-0.4,0.3-0.3,0.5s0.1,0.2,0.2,0.4s0.2,0.3,0.1,0.4
	s-0.3,0.1-0.4,0s-0.1-0.2-0.2-0.1s-0.2,0.2-0.3,0.2c-0.1,0-0.3-0.1-0.4-0.1s-0.1,0.1-0.2,0c0-0.1-0.1-0.2-0.2-0.3
	c-0.1-0.1-0.2-0.1-0.3-0.2c-0.1,0-0.2,0-0.4-0.1c-0.1,0-0.2-0.1-0.4-0.1c-0.1,0-0.3,0-0.3,0s-0.1-0.1-0.1-0.2l-0.3-0.1
	c-0.1-0.1-0.1-0.1-0.2-0.1s-0.3,0-0.3,0.2s0,0.3-0.1,0.4s-0.1,0.3-0.2,0.3h-0.3c-0.1,0-0.3,0-0.3,0c0-0.1-0.1-0.1-0.2-0.1l0,0
	c-0.2,0.1-0.4,0.2-0.5,0.3c0,0.2,0,0.4,0.1,0.5s0.2,0.2,0.3,0.3c0.1,0.1,0.1,0.2,0.1,0.4c0,0.1,0,0.2,0,0.3c0,0.1,0,0.2,0,0.3
	c0,0.1,0,0.2,0,0.2c0,0.1,0,0.3,0,0.5s0,0.3,0,0.4s0,0.2,0.1,0.3c0,0.1,0,0.1,0.1,0.2s0.1,0,0.2,0.2s-0.1,0.1,0.1,0.2
	c0.1,0.1,0.3,0.1,0.4,0.2c0.1,0,0.2,0,0.2,0.1c0.1,0.2,0.2,0.3,0.3,0.5c0.1,0.1,0.2,0.2,0.4,0.3c0.1,0,0,0.1,0.2,0.1
	c0.1,0,0.2,0,0.3,0c0.1,0,0.2-0.1,0.2,0s0.1,0.1,0.1,0.3s0.1,0.2,0.1,0.4s-0.1,0.2-0.1,0.2s-0.1,0-0.2,0.2s-0.1,0.2,0,0.3
	s0.1,0.2,0.2,0.4s0.1,0.2,0.1,0.4s0.1,0.3,0,0.2s-0.1-0.1-0.2-0.1s-0.2,0-0.3,0c-0.1,0-0.3,0-0.4-0.1c-0.1,0-0.3-0.1-0.4-0.1
	c0-0.1-0.1-0.2-0.2-0.2s-0.2,0-0.3-0.1s-0.2-0.5-0.3-0.4s-0.1,0.1-0.2,0.3s-0.2,0.2-0.3,0.2c-0.1-0.1-0.1-0.2-0.2-0.3
	c0-0.1-0.1-0.1-0.2-0.2c0-0.1,0-0.2-0.1-0.3c0,0-0.1-0.1-0.1-0.2c-0.1-0.1-0.1-0.2-0.2-0.3c0,0-0.1-0.2-0.2-0.2s-0.2,0-0.3,0
	l-0.4,0.1c-0.1,0.1-0.2,0.1-0.2,0.2c-0.1,0-0.2,0.1-0.4,0.1l-0.5,0.1c-0.2,0-0.3,0-0.5,0c-0.1,0-0.1,0-0.2,0s-0.1,0-0.2,0H370
	c0,0,0,0-0.1,0s-0.3-0.1-0.3,0s0,0.1,0,0.2s0,0.2-0.2,0.2s-0.2,0.1-0.3,0.1s0,0.2-0.1,0.2c-0.1,0.1-0.2,0.1-0.3,0
	c-0.1-0.1-0.2-0.2-0.4-0.2c-0.1,0-0.2,0-0.2,0c-0.1,0-0.2,0-0.2,0c-0.1-0.1-0.2-0.1-0.4-0.1c-0.1,0-0.2-0.1-0.3-0.1h-0.4
	c-0.1,0-0.2-0.1-0.3,0s-0.3,0.2-0.2,0.4c0.1,0.3,0.2,0.5,0.2,0.8s0,0.4-0.1,0.5c-0.2,0.1-0.4,0.1-0.5,0.2s-0.2,0.1-0.4,0.2
	c-0.1,0.1-0.3,0.2-0.3,0.3l-0.2,0.3c-0.1,0.2-0.1,0.3-0.3,0.4s-0.3,0-0.5,0c-0.1,0-0.3,0-0.4,0c-0.2,0-0.2,0-0.4,0
	c-0.1,0-0.2,0-0.4,0c-0.1-0.1-0.2-0.1-0.4-0.2c-0.1,0-0.2,0-0.2,0s-0.2,0-0.3,0.1s-0.1,0.2-0.2,0.2c-0.1,0.1-0.1,0.1-0.2,0.1
	s-0.1,0.1-0.1,0.2s0,0.1-0.2,0.1c-0.1,0-0.2,0.1-0.3,0.2l-0.1,0.1l-0.1,0.2v0.1c0,0.1-0.1,0.2,0.1,0.2c0.1,0,0.2,0,0.3-0.1
	c0,0,0,0,0.1,0.1s0.3,0.3,0.3,0.4s-0.1,0.1,0,0.2s0.3,0.1,0.3,0.3c0.1,0.1,0.1,0.3,0.1,0.4c0,0.2,0,0.3,0,0.5s0.3,0.2,0.3,0.2
	s0.1-0.1,0.5-0.3s0.4-0.3,0.6-0.2c0.2,0.1,0.4,0.2,0.6,0.4l0.2,0.3c0.1,0.1,0.2,0.1,0.3,0.2s0.1,0.2,0.2,0.2s0.5,0,0.7,0
	s0.3,0.1,0.4,0.2s0.3,0.3,0.4,0.5c0,0.1,0.3,0.2,0.3,0.4c0,0.1,0,0.3,0,0.4s0,0.2-0.1,0.2s-0.1-0.1-0.1-0.1s-0.1-0.1-0.2,0
	c-0.2,0.1-0.4,0.3-0.6,0.4l-0.1,0.1c0,0-0.1,0.2-0.2,0.2s-0.2,0.1-0.3,0.1c-0.1,0-0.2-0.1-0.3,0c-0.1,0.1-0.2,0.3-0.3,0.4
	c0,0.1-0.1,0.1-0.1,0.2v0.2c0,0.1,0,0-0.1,0.2s-0.1,0.5-0.1,0.5v0.2c0,0,0,0,0,0.1s-0.1,0.3-0.1,0.4s0,0.2,0,0.3c0,0.1,0,0.5,0,0.6
	s-0.2,0.6-0.2,0.6l-0.1,0.7v1.4c0,0.1-0.1,0.4-0.1,0.4s0,0.4,0,0.5s0,0.4,0,0.4s0.1,0.1,0.1,0.2s-0.1,0.2-0.1,0.2c0,0.1,0,0.2,0,0.3
	c0,0.1,0,0.1-0.1,0.2c0,0.1,0,0.2,0,0.3c0,0.1,0,0.3,0.1,0.4c0,0.1,0.1,0.1,0.2,0.1s0.1-0.1,0.2-0.1s0.1,0,0.2,0s0.2,0,0.2,0
	c0.1,0,0.2,0,0.2,0c0,0.1,0,0.2,0,0.2s-0.1,0-0.1,0.1s0,0.1,0,0.2c0,0,0,0.1-0.1,0.1s-0.1-0.1-0.2,0s-0.1,0.2-0.2,0.1
	s-0.3-0.1-0.3,0s0,0.2,0,0.2s0.1,0,0.1,0.1s0,0.1-0.1,0.1s-0.2-0.1-0.2,0c0,0-0.1,0.1-0.1,0.2l0.1,0.1v0.1l0,0c0,0-0.1,0-0.2,0
	s0,0-0.1,0.2c-0.1,0.1-0.1,0.1-0.2,0.1s-0.1,0-0.2,0s-0.1-0.1-0.2-0.1l-0.1-0.1v0.1c0,0,0,0,0.1,0.1l0.2,0.1
	c0.2,0.1,0.4,0.1,0.6,0.1c0.1,0,0.3,0,0.4,0.1c0.1,0,0.2,0.1,0.3,0.1c0.2,0,0.4-0.1,0.6-0.2l0.3-0.1c0.1-0.1,0.2-0.1,0.3,0
	c0.1,0.1,0.2,0.2,0.3,0.1s0.2-0.2,0.4-0.2c0.1-0.1,0.3-0.1,0.4-0.3c0.1-0.1,0.2-0.2,0.3-0.3c0.2-0.2,0.4-0.3,0.4-0.4s0-0.2,0-0.3
	c0,0-0.1-0.1,0,0s0.2,0.1,0.2,0.1h0.2c0.1,0,0.1,0,0.2,0s0.2,0,0.2-0.1l0.3-0.3c0-0.1,0.1-0.2,0.2-0.3s0.1-0.2,0.2-0.3
	s0-0.2,0.1-0.3l0.2-0.2c0.1-0.1,0.1-0.1,0.2-0.2s0.1-0.2,0.2-0.3c0-0.1-0.1-0.2,0-0.3c0.1-0.2,0.2-0.3,0.3-0.4
	c0.1-0.1,0.5-0.5,0.6-0.6s1.7-0.5,1.8-0.5c0.2,0,0.4-0.1,0.5-0.2c0.2-0.1,1.1-0.4,1.2-0.4s0.5-0.1,0.6-0.1s0.7-0.2,0.8-0.3
	c0.2-0.1,0.4-0.1,0.5-0.2s0.1,0,0.2-0.1v-0.1h-0.2h-0.2v-0.1l0.1-0.1c0.1-0.1,0.1-0.1,0.2-0.2s0.2,0,0.3-0.1s0,0,0-0.1
	s0.1-0.2,0.1-0.3v-0.2c0,0,0,0,0.1,0s0-0.2,0-0.2s-0.5-0.5-0.5-0.6s-0.1-0.2-0.1-0.2h-0.1c0,0-0.1-0.1-0.1-0.2s-0.1-0.8-0.1-0.8
	c0.1,0,0.2-0.1,0.3-0.1c0.1,0,0.2,0.1,0.3,0.2c0.1,0.2,0.3,0.4,0.5,0.5c0.1,0.1,0.3,0.5,0.5,0.5l0.5,0.2c0.1,0,0.2,0.1,0.3,0.2
	c0,0.1,0,0.1,0.1,0.2s0.1,0.2,0.2,0.2s0.2,0,0.3,0h0.1c0,0,0-0.1,0.2,0s0.2,0.1,0.3,0.1c0.1,0,0.2-0.1,0.2-0.1l0.2-0.1
	c0.1,0,0.1-0.1,0.2-0.1c0,0,0-0.1,0.1-0.2s0.2-0.1,0.2-0.1v-0.1c0-0.1,0-0.2,0-0.3c0-0.1,0.1-0.1,0-0.2s-0.1-0.2-0.2-0.3
	c-0.1-0.1-0.2-0.1-0.2-0.2c-0.1-0.1-0.1-0.2-0.2-0.2c0-0.1-0.1-0.3-0.2-0.4c-0.2-0.2-0.3-0.4-0.5-0.7c-0.1-0.1-0.3-0.3-0.5-0.5
	s-0.4-0.3-0.5-0.4s-0.4-0.3-0.4-0.3c-0.1,0-0.2-0.1-0.2-0.2c-0.1-0.2-0.2-0.2-0.3-0.3c-0.1-0.1-0.2-0.2-0.3-0.2l-0.1-0.2v-0.2v-0.1
	c0,0,0.3,0.1,0.4,0.2s0.2,0.3,0.3,0.4c0.2,0.2,0.5,0.5,0.8,0.7c0.2,0.1,0.7,0.4,0.9,0.6s0.3,0.3,0.6,0.5s0.3,0.3,0.4,0.4
	s0.2,0.2,0.3,0.3c0.1,0.1,0.2,0.1,0.2,0.2c0.1,0,0.2,0,0.2,0s0-0.1,0.2-0.1s0.2,0,0.2-0.1s0.2-0.1,0.2-0.1s0.2,0,0-0.1
	s-0.4-0.2-0.5-0.2s0,0-0.1-0.2c-0.1-0.1-0.3-0.3-0.4-0.3c-0.1-0.1-0.3-0.1-0.4-0.1c-0.3-0.1-0.5-0.1-0.5-0.2s-0.9-1.2-0.9-1.3
	c-0.1-0.2-0.2-0.4-0.4-0.6c-0.1-0.1-0.2-0.2-0.3-0.2c-0.1,0-0.2-0.1-0.3-0.1c-0.1,0-0.2,0-0.3,0c-0.1,0-0.3,0-0.4-0.1
	c-0.1,0-0.1-0.1-0.1-0.1l-0.1-0.1h-0.1c0,0-0.3-0.1-0.4-0.1H375c-0.1,0-0.2-0.1-0.2-0.1l-0.1-0.1l-0.1-0.1l-0.1-0.1l0.1-0.1
	c0,0,0.5,0.3,0.6,0.3c0.1,0.1,0.2,0.1,0.3,0.1c0.1,0,0.2,0.1,0.4,0c0.1-0.1,0.2-0.1,0.3-0.2c0.1,0,0-0.1,0.3-0.1h0.5
	c0.1,0,0.2,0,0.3,0c0.2,0,0.1-0.1,0.3-0.1l0.6,0.1c0,0,0,0.1,0.2,0.2l0.6,0.2c0.1,0,0.2,0.1,0.2,0.1c0.1,0.1,0.2,0.1,0.3,0.1
	c0.1,0,0.3,0,0.4,0.1c0.1,0,0.2,0.1,0.2,0.1c0.1,0.1,0.2,0.1,0.3,0.1c0.1,0.1,0.2,0.1,0.3,0.1c0.1,0,0.1,0,0.2-0.1s0-0.1,0-0.2
	s0.1,0,0,0l-0.1-0.1h-0.1c0,0-0.1-0.2,0-0.2s0.2,0,0.2,0c0.1,0.1,0.2,0.1,0.3,0.2c0.1,0,0.1,0.1,0.2,0c0-0.1,0-0.2,0-0.3
	c0-0.1,0-0.1,0-0.2s0-0.1,0-0.2s0-0.2,0-0.2s-0.1,0-0.1-0.1s-0.1-0.2-0.2-0.3c-0.1-0.1-0.2-0.2-0.2-0.3s0-0.1-0.1-0.1
	s-0.2,0-0.1-0.1c0-0.1,0.1-0.2,0.1-0.2c0.1-0.2,0.1-0.2,0.1-0.3c0-0.1,0-0.1,0-0.2s0,0,0-0.1s0.1-0.1,0.1-0.2c0,0,0-0.1,0-0.2
	s0-0.1,0-0.2c0,0,0,0,0-0.1s0-0.1,0-0.2c0,0,0,0,0-0.1s0-0.1,0-0.2c0,0,0-0.1,0.1-0.1s0.2,0.2,0.2,0.3s0.1,0.1,0,0.1s-0.1,0-0.1,0.1
	s0,0.2,0,0.3c0,0.1,0.1,0.1,0,0.2s-0.1,0.1-0.1,0.2s0,0.2,0,0.3c0,0-0.1,0,0,0.2s0.2,0.4,0.3,0.6c0.1,0.2,0.2,0.3,0.4,0.5h0.1
	c0,0,0-0.2,0.1-0.2s0-0.2,0-0.2l0.1,0.2l0.1,0.4c0,0,0,0.1,0.1,0.1s0.2,0.1,0.3,0s0-0.1,0.2-0.1s0.2,0,0.2-0.1s0.1-0.2,0-0.2
	s-0.1-0.1-0.2-0.1s-0.1-0.1-0.1-0.2s0-0.1,0-0.2s0-0.1,0-0.2s-0.1-0.1-0.1-0.2s0.1,0,0.1,0.1s0.1,0.3,0.1,0.3s0,0.1,0.1,0.1
	s0.1-0.1,0.1-0.1c0-0.1,0-0.2,0-0.3c0-0.1,0.1-0.2,0.1-0.2s0.1-0.1,0.1,0.1c0,0.1,0,0.3,0,0.4c0.1,0.1,0.1,0.1,0.2,0.2
	c0,0,0.1,0.1,0.2,0s0.1,0,0.1-0.1s0.1-0.1,0.1-0.1s0.1-0.1,0.2,0s0.2,0.2,0.1,0.3c-0.1,0.1-0.2,0.1-0.3,0.2c-0.1,0-0.3,0.1-0.3,0.2
	s-0.1,0.2,0,0.3c0.1,0.1,0.1,0.1,0.2,0.1c0,0,0.1,0,0.1-0.1s0-0.2,0-0.2c0.1-0.1,0.2-0.1,0.3-0.2c0.1,0,0.2,0,0.3,0
	c0.1,0,0.1,0,0.2,0s0.2,0,0.2,0s0,0.1,0.2,0.2s0.2,0.1,0.4,0c0.2-0.1,0.4-0.2,0.6-0.4c0.1-0.1,0.2-0.2,0.4-0.2
	c0.2-0.1,0.4-0.1,0.6-0.2c0.1,0,0.3,0,0.4,0c0.2,0,0.1-0.2,0.2-0.3s0.8-0.4,0.8-0.5l0.4-0.2l0.3-0.2c0.2-0.1,0.2-0.1,0.4-0.1
	c0.2,0,0.4-0.1,0.6-0.2c0.1-0.1,0.2-0.1,0.3-0.2c0.2,0,0.4-0.1,0.5-0.1h0.5c0.1,0,0.1,0,0.2,0s0.2,0,0.3,0c0.2,0,0.2,0.1,0.3-0.1
	s0-0.4,0.1-0.6s0.1-0.5,0.2-0.7c0.1-0.1,0-0.1,0.2-0.3s0.7-0.4,0.8-0.5c0.2,0,0.4,0,0.5,0.1l0.3,0.1c0.1,0,0.1,0,0.1,0.1
	s0.1,0.1,0.1,0.1c0.1,0,0.1,0,0.1-0.1s-0.1-0.1,0-0.2c0,0,0.1,0,0.1-0.1c0,0,0,0,0.1-0.2l0.1-0.3c0.1,0,0.2-0.1,0.3-0.1
	c0.1,0,0.2-0.1,0.4-0.1c0.2,0,0.3,0,0.5-0.1c0.1-0.1,0.2-0.2,0.3-0.3s0-0.2,0.2-0.3c0.1-0.1,0.3-0.2,0.4-0.2
	c0.2-0.1,0.2-0.1,0.3-0.1s0.5,0,0.6,0s0.2,0,0.3,0c0,0,0.1,0.1,0.2,0.1s0.1,0,0.1-0.1s0.1-0.4,0.1-0.5s0-0.3,0.1-0.4
	c0.1,0,0.2-0.1,0.3-0.1c0.1,0,0.2,0,0.3-0.1c0.1,0,0.2-0.1,0.3-0.2h0.1c0.1,0,0.1-0.1,0.2-0.1s0.1,0.1,0.2,0.2s0.1,0.1,0.2,0.1
	c0.1-0.1,0.2-0.1,0.4-0.2c0.2-0.1,0.3-0.1,0.3-0.2s-0.1-0.1,0-0.2s0.1-0.2,0.1-0.2v-0.4c0,0,0-0.1,0-0.2s0-0.1,0-0.1l0,0v-0.2
	c0-0.1,0-0.1,0-0.2c0,0,0,0,0-0.1s0-0.2,0-0.2s0-0.1,0-0.2s-0.1-0.2,0-0.2s0.1,0,0.2,0c0,0,0,0,0,0.2s0,0.2,0,0.2s0,0.1,0.1,0.1
	s0.1,0,0.2,0l0.3,0.2c0,0,0.1,0,0.1-0.1s0.1-0.1,0.1-0.2s0-0.2,0-0.3c0,0-0.1-0.1,0-0.2l0.2-0.1c0,0-0.1-0.1,0-0.1s0-0.1,0.1-0.1
	c0,0,0.1,0,0.1-0.1v-0.1c0,0,0.1-0.1,0.1,0s0.1,0.1,0.1,0s0-0.1,0.1-0.2c-0.1-0.1-0.1-0.2-0.2-0.3l-0.2-0.2c0-0.1,0-0.2,0-0.3
	c0-0.1,0-0.2,0-0.2s0.1,0,0.1-0.1s-0.1-0.1-0.1-0.1s-0.1,0-0.1,0.1c-0.1,0.1-0.1,0.2-0.1,0.3c0,0.1-0.1,0.1-0.1,0.1
	c-0.1,0-0.1,0-0.1-0.1c0,0,0-0.1,0-0.2s0-0.2,0.1-0.3s0-0.1,0.1-0.2s0.1-0.1,0.1-0.1s0.1,0.1,0.1,0s0.1-0.2,0.1-0.2s0.2-0.1,0.2-0.2
	s0-0.2,0-0.2c0.1,0,0.2,0.1,0.2,0.2s0,0.1,0,0.2s0,0.1,0,0.2s-0.1,0,0,0.1s0,0.2,0.1,0.2l0.2,0.1h0.1l0.1-0.2c0,0,0-0.1,0-0.2
	c0,0,0-0.1,0-0.2v-0.1c0-0.1-0.1-0.1-0.1-0.2c-0.1,0-0.2,0-0.2-0.1c-0.1-0.1-0.1-0.2-0.2-0.3l-0.1-0.2l0.1-0.4
	c0-0.1,0.1-0.2,0.1-0.3s-0.1-0.1-0.2-0.2s-0.1-0.1-0.1-0.2s0-0.2,0-0.3l0.1-0.3c0,0,0-0.1,0.1-0.1s0.2,0,0.2-0.1s0-0.1,0-0.2
	c0,0-0.1,0-0.2-0.1s0,0,0-0.1v-0.3c0-0.1,0-0.1,0-0.2s-0.1-0.1-0.2-0.2c-0.1,0-0.1-0.1-0.1-0.2l-0.1-0.1c0,0-0.1-0.1,0-0.2
	s0.3,0,0.4,0.1l0.2,0.4c0.1,0.1,0.1,0.1,0.1,0.2s0,0.1,0,0.2l0.2,0.1c0,0,0,0.1,0.1,0.1s0.1,0,0.2-0.1l0.1-0.1c0,0,0.1,0.1,0.2,0
	c0-0.1,0-0.2,0-0.2c0-0.1-0.1,0-0.2-0.1s-0.2,0-0.2-0.1s-0.1-0.3-0.1-0.3c0-0.1,0-0.1-0.1-0.2l-0.2-0.2v-0.1c0-0.1-0.1-0.2-0.1-0.3
	c0,0,0-0.2,0.1-0.2s0-0.3,0-0.3s-0.1,0.1-0.1,0.2c-0.1,0-0.1,0.1-0.2,0.1c0,0-0.1,0,0-0.2s0.2-0.5,0.2-0.6c0.1-0.2,0.2-0.3,0.3-0.4
	c0.1-0.1,0.2-0.2,0.3-0.2s0-0.2,0.1-0.2s0.2-0.1,0.2,0c0.1,0.1,0.1,0.2,0.2,0.3c0,0.1,0,0.2,0,0.2v0.1c0,0,0,0.1-0.1,0.2
	s-0.1,0-0.1,0.1s0,0.1,0.1,0.1s0.2-0.1,0.2-0.1l0.1-0.1h0.1c0,0,0-0.2,0.1,0s0,0.3,0,0.4s0,0.1,0,0.2s-0.1,0.1,0,0.2l0.1,0.1
	c0,0,0,0,0,0.1l0.1,0.1c0,0,0,0.1,0.1,0.1c0-0.1,0-0.2,0-0.2v-0.1c0-0.1,0-0.1,0-0.2s-0.1-0.1,0-0.2s0.2,0,0.2-0.1s-0.2-0.2-0.2-0.2
	s-0.1,0.1-0.1,0c-0.1,0-0.1-0.1-0.1-0.1c0-0.1-0.1-0.1-0.1-0.1c-0.1,0-0.2-0.1-0.2-0.1c0-0.1-0.1-0.1-0.2-0.2c0-0.1-0.1-0.1-0.1-0.2
	v-0.3c0.1-0.2,0.2-0.3,0.3-0.5c0.1,0,0.2-0.2,0.3-0.2s0.1,0,0.1,0s0,0.1,0,0.2s-0.1,0.1-0.1,0.1s-0.1,0.1,0,0.1s0.2-0.1,0.3-0.2
	c0-0.1,0-0.2,0-0.2c0-0.1,0.1-0.2-0.1-0.2s-0.2-0.1-0.3-0.1l-0.2-0.1c0,0-0.1,0-0.1-0.1s-0.1-0.1,0-0.1s0.2,0,0.2,0s0-0.1,0-0.2
	s-0.5-1-0.6-1s-0.2-0.2-0.2-0.3c0-0.2,0-0.3,0-0.5c0-0.1,0.1-0.1,0.1-0.2s0.1-0.2,0-0.3s-0.1-0.2-0.1-0.3s0.1-0.3,0.1-0.4
	s-0.1-0.2-0.2-0.2s-0.1,0.2-0.3,0s-0.2-0.2-0.2-0.3c0-0.1,0-0.3,0-0.4s0-0.2,0-0.3s0.2-0.2,0.3-0.1s0.1,0.2,0.2,0.2s0.1,0,0.1,0.1
	s-0.1,0-0.1,0.1s-0.2,0.1,0,0.2s0.2,0.1,0.3,0c0-0.1,0-0.1,0-0.2s0-0.1,0-0.2s-0.1-0.1-0.1-0.2s0-0.1,0-0.2s0-0.3,0-0.3s0,0-0.1,0
	s-0.2,0.1-0.2,0s-0.1-0.1-0.1-0.2c0,0-0.1,0-0.1-0.1s0.1-0.2,0-0.2s-0.2,0-0.3-0.1l-0.1-0.1c0-0.1-0.1-0.1-0.1-0.2
	c0,0-0.1-0.2,0-0.2s0.1,0,0.2,0.1c0,0.1,0.1,0.1,0.2,0.2c0.1,0,0.2,0.1,0.2,0.1s0.1,0,0.1,0.1s0,0.1,0,0.2s0.1,0.1,0.1,0
	s0-0.2,0-0.2s0-0.1-0.1-0.2s-0.2,0-0.2-0.1c-0.1,0-0.1-0.1-0.2-0.1c0-0.1-0.1-0.1-0.1-0.2s0,0,0-0.2V86c0-0.1,0-0.5,0-0.6
	s0-0.1,0-0.2s0-0.1,0-0.2s0-0.1,0-0.2s-0.1-0.2-0.1-0.2v-0.2c0-0.1,0.1-0.1,0.1-0.2c0,0,0-0.1,0.1,0s0.1,0.2,0.1,0.2
	c0,0.1,0,0.1,0,0.2s0,0.2,0,0.3s0,0,0,0.1s-0.1,0.2,0,0.2s0.2,0.1,0.2,0s0-0.2,0-0.2c0-0.1,0-0.1,0-0.2s0-0.1,0-0.2s0-0.2,0-0.3
	c0-0.1-0.1-0.2-0.1-0.3c0,0-0.1-0.1-0.1-0.2s-0.1-0.1-0.1-0.2s0-0.1,0-0.1v-0.1v-0.1c0-0.1,0-0.1,0-0.2v-0.2c0,0-0.1,0-0.1-0.1
	s-0.1-0.2-0.1-0.2c-0.1,0-0.1,0-0.2,0s-0.2,0-0.2-0.1s-0.2-0.2-0.2-0.2l-0.1-0.2c0,0,0.1-0.2,0.2-0.2s0.1,0.1,0.2,0.1
	s0.1,0.1,0.2,0.2s0.1,0.1,0.2,0.1s0.1-0.1,0.1-0.1l0,0c0.3,0.2,0.7,0.1,0.9-0.2c0-0.1-0.1-0.2-0.1-0.3s-0.1-0.1-0.1-0.2s0-0.1,0-0.2
	s0.1-0.2,0.1-0.2c0-0.1,0-0.3-0.1-0.4c-0.1-0.2-0.3-0.4-0.4-0.7c-0.1-0.2-0.2-0.3-0.2-0.5s0-0.3,0-0.4c-0.1-0.1-0.1-0.2-0.2-0.3
	c-0.1-0.1-0.1-0.2-0.1-0.3c0-0.1-0.1-0.1,0-0.2s0.1-0.1,0.1-0.2s0-0.1-0.1-0.2s-0.1-0.1-0.1-0.2s0.1-0.2,0.1-0.3
	c0.1-0.1,0.1-0.2,0.1-0.3c-0.1-0.2-0.1-0.3-0.2-0.5s-0.1-0.1-0.2-0.3c-0.1-0.1-0.2-0.3-0.3-0.5c0-0.1-0.1-0.2-0.1-0.3
	c0-0.1-0.1-1.1-0.1-1.2S402,74,402,73.8s0-0.3,0-0.3s-0.1,0-0.1,0.1s0,0.2,0,0.1c-0.1-0.1-0.1-0.1-0.1-0.2s0-0.1,0-0.1
	s-0.2-0.1-0.1-0.2s0.1-0.1,0.2-0.1s0.2,0.1,0.2,0s-0.1-0.1,0.1-0.3s0.2-0.1,0.2-0.2s0.1-0.1,0-0.2s-0.2-0.1-0.3-0.2
	c-0.1-0.1-0.2-0.3-0.3-0.5c0-0.1,0-0.1,0-0.2s0-0.2,0-0.3c-0.1,0-0.1-0.1-0.2-0.1V71c0,0-0.1,0-0.1-0.1s0-0.2-0.1-0.3
	c0,0-0.2,0-0.2,0.1s-0.2,0.2-0.2,0.2c0,0.1,0,0.1,0,0.2s0,0.2,0,0.2s-0.2,0.1-0.2,0s0,0,0-0.2s0.1-0.2,0-0.3s-0.2,0-0.2-0.1
	s-0.1-0.1-0.1-0.2s0-0.2,0-0.2l-0.1-0.2c0,0-0.1,0-0.1,0.1s0,0.1,0,0.2H400c-0.1,0-0.1,0-0.2-0.1l-0.1-0.2c-0.1,0-0.1-0.1-0.2-0.1
	s-0.2,0-0.2-0.1c0.1-0.1,0.1-0.1,0.2-0.1h0.1c0,0,0.1,0.1,0.2,0.1s0,0,0.1-0.1s0.1,0,0.1,0s0.1-0.1,0-0.1s-0.2,0-0.2,0
	c-0.1,0-0.2,0.1-0.2,0c-0.1-0.1-0.1-0.1-0.2-0.2s-0.2-0.2-0.2-0.3c0-0.1-0.2-0.3-0.2-0.3s-0.2-0.2-0.3-0.3c-0.2-0.2-0.3-0.4-0.4-0.6
	s-0.3-0.6-0.3-0.6c-0.1-0.2-0.1-0.3-0.2-0.5c0-0.1,0-0.1,0-0.2s0-0.2-0.1-0.2s-0.1,0.1-0.1,0.1s0,0.1-0.1,0.1s-0.1,0-0.1-0.1
	s0-0.1,0-0.2l0,0c0.1,0,0.1-0.1,0.1-0.1c0-0.1,0-0.1-0.1-0.2s-0.1-0.1-0.2-0.2s-0.2-0.2-0.3-0.3c0-0.1-0.1-0.1-0.2-0.2
	s-0.2-0.5-0.2-0.5l-0.2-0.3v-0.1v-0.1c0,0,0,0,0.1,0h0.4c0.1,0,0.2,0,0.3,0c0-0.1,0.1-0.2,0.1-0.2s0,0-0.1,0s-0.2,0-0.3,0
	c-0.1,0-0.2,0-0.3,0s0,0-0.2-0.1S396,64,396,64s-0.1,0.1,0,0.1c0,0,0,0.1,0.1,0.1s0.1,0,0.1,0.1s0,0.1,0,0.1l-0.2,0.1l0,0
	c-0.1,0.1-0.1,0.1-0.2,0.1s-0.1,0-0.2,0s-0.1-0.1-0.2-0.2c0-0.1-0.1-0.1-0.1-0.2l0.2-0.3v-0.2c0,0,0,0,0.1-0.1s0.2-0.1,0.2-0.1
	c0-0.1-0.1-0.1-0.2-0.1s-0.1,0-0.2,0s-0.2,0-0.3-0.1c-0.1-0.1-0.1-0.2-0.1-0.3l-0.1-0.3c0-0.1-0.1-0.1-0.2-0.2s0-0.3-0.2-0.2
	s-0.1,0.1-0.1,0.1s-0.3,0-0.3-0.1s-0.2-0.2-0.2-0.2c-0.1-0.1-0.1-0.2-0.2-0.3l-0.9-0.7l-0.5-0.4c0,0-0.6-0.4-0.7-0.4
	s-0.2-0.1-0.2-0.1c0,0.1,0,0.1,0,0.2c0.1,0.1,0.2,0.2,0.2,0.2c0,0.1,0.1,0.2,0.2,0.2s0.1,0.1,0.2,0.1s0.1,0,0.2,0.1
	c0,0.1,0.1,0.2,0.2,0.2s0.1,0,0.2,0.1c0,0.1,0.1,0.2,0.2,0.2c0.1,0.1,0.2,0.1,0.2,0.1c0.1,0,0,0,0.1,0.1c0,0.1,0.1,0.2,0.2,0.2
	s0.1,0,0.2,0.1c0.1,0,0.1,0.1,0.2,0.2c0,0.1,0,0.2,0,0.3s-0.2,0.1-0.3,0.1c-0.1,0-0.3,0-0.4,0s-0.3,0-0.4-0.1s-0.2-0.2-0.1-0.2
	s0.1-0.2,0.2-0.2h0.1l0.2,0.1c0,0,0.1,0,0-0.2s-1.5-1.1-1.5-1.1l-0.2-0.1l-0.1,0.1c0,0-0.2-0.2-0.1-0.2h0.1c0,0,0-0.1,0-0.2
	c-0.1,0-0.2,0-0.3-0.1l-0.2-0.1h-0.1c-0.1,0-0.2,0-0.2-0.1s-0.1-0.1-0.2-0.2c-0.1,0-0.2,0-0.3,0c-0.1-0.1-0.5-0.1-0.5-0.2
	s-0.1-0.1-0.1-0.1h0.1c0.1,0,0.3,0,0.5,0l0.5,0.2c0.1,0,0.2,0.1,0.3,0.2l0.2,0.1c0,0,0,0.1,0,0s0-0.1-0.1-0.2l-0.7-0.4
	c-0.2-0.1-0.3-0.2-0.5-0.3c-0.1-0.1-0.4-0.2-0.5-0.4c-0.1-0.1-0.2-0.2-0.3-0.3c-0.1-0.1-0.1,0-0.2-0.2s-0.3-0.2-0.3-0.2
	c-0.2-0.1-0.3-0.3-0.5-0.4c-0.1-0.1-0.2-0.2-0.3-0.3l-0.2-0.2h-0.1h-0.1l0.1-0.1c0-0.1,0-0.1,0-0.2c0-0.1-0.2-0.1-0.2-0.2
	s-0.1,0-0.1-0.2s0-0.2,0-0.3s0-0.3-0.1-0.4s-1.9-1.3-1.9-1.4c-0.2-0.2-0.4-0.3-0.6-0.5c-0.1-0.2-0.2-0.3-0.4-0.4
	c-0.3-0.1-0.5-0.3-0.8-0.4c-0.1-0.1-0.5-0.5-0.5-0.6c-0.2-0.2-0.4-0.4-0.5-0.6c-0.1-0.1-0.2-0.2-0.2-0.3s0-0.2-0.1-0.3
	s-0.2-0.3-0.4-0.4c0-0.1-0.1-0.2-0.1-0.4c0-0.1,0-0.1,0-0.1c0-0.2-0.1-0.4-0.1-0.6c0-0.3,0-0.6,0-0.9c0.1-0.1,0.1-0.2,0.2-0.3
	c0-0.1,0.1-0.1,0.1-0.2c0-0.1,0-0.1,0-0.2s-0.2-0.2-0.2-0.2c0-0.1-0.1-0.2-0.1-0.3c-0.1-0.1-0.1-0.1-0.2-0.2s-0.1-0.2-0.1-0.2v-0.1
	l0,0c0-0.1,0.1-0.1,0.1-0.2l-0.1-0.1c0,0-0.1-0.1-0.1,0s0,0.2-0.1,0.2s-0.1,0-0.2,0c0,0-0.1-0.1-0.1,0c0,0,0,0.1-0.1,0.1h-0.1v-0.1
	v-0.1c0,0,0-0.1-0.1-0.1l-0.1-1l-0.4-0.4c-0.1-0.1-0.3-0.2-0.4-0.3s-0.2-0.2-0.2-0.2c-0.1,0-0.2,0-0.3-0.1c-0.1-0.1-0.2-0.1-0.3-0.2
	s-0.5-0.5-0.6-0.6s-0.1-0.2-0.2-0.2c0-0.1-0.1-0.1-0.1-0.2c0-0.1-0.1-0.2-0.1-0.3s0-0.2,0-0.2l-0.1,0.2c0,0.1,0,0.1,0,0.2
	c0,0,0,0.1,0,0c-0.1,0-0.1-0.1-0.1-0.2c0-0.1,0-0.2,0-0.3s-0.5-0.8-0.6-1s-0.4-0.9-0.4-1s0-0.2,0-0.3s0-0.2,0-0.3l-0.1-0.1
	c-0.1,0-0.1,0-0.1-0.1s-0.1-0.2-0.1-0.3s0-0.1,0-0.2l-0.1-0.1c0,0-0.1-0.1-0.1-0.2c0,0,0,0,0-0.1v-0.1c0-0.1,0-0.2-0.1-0.3h-0.2
	c-0.1-0.1-0.2-0.2-0.2-0.3s-0.1-0.4-0.1-0.5s0-0.1,0.1-0.2c0.1-0.1,0.1-0.2,0.1-0.2c0-0.1-0.1-0.2-0.1-0.3s0-0.1,0-0.2
	c0.1-0.1,0-0.1,0.1-0.1s0.2,0,0.2,0.1c0,0,0.1,0.1,0.1,0s0-0.1,0-0.2V37c0,0,0,0,0.1,0s0.1,0.2,0.1,0.2s0.1,0.1,0.1,0s0-0.2,0-0.2
	c0-0.1,0-0.2,0-0.3s0-0.3,0-0.3s0-0.1,0.1-0.2h0.1c0.1,0,0.1-0.1,0.2-0.2c0.1-0.1,0.2-0.1,0.4-0.2c0.1,0,0.1-0.1,0.1-0.1
	s-0.1-0.1,0-0.2s0.1-0.2,0.1-0.2s0-0.1-0.1-0.2s-0.1,0-0.1-0.1v-0.2h-0.1h-0.1c0,0-0.1,0-0.1-0.1s0-0.1,0.1-0.1s0.1,0,0.2,0
	s0.1-0.1,0.1-0.1h0.1c0,0,0,0.1,0.1,0.1s0.1-0.1,0.1-0.2c0-0.1,0-0.1-0.1-0.2c0-0.1-0.2-0.1-0.1-0.2s0-0.9,0-0.9l-0.2-0.1
	c0,0-0.1-0.1,0-0.1c0,0,0.1-0.1,0.2-0.1l0,0c0.1,0,0.1-0.1,0.1-0.2s0.1-0.4,0.1-0.4s0-0.1,0.1-0.2c0.1,0,0.2-0.1,0.3-0.1
	c0.1,0,0.2-0.1,0.2-0.2c0.1-0.2,0.2-0.3,0.2-0.5c0-0.1,0.1-0.2,0.1-0.3c0-0.1,0-0.1,0-0.2c0,0-0.1,0,0-0.1s0.2-0.1,0.2-0.2
	s0.1-0.1,0.1-0.2s0.1-0.2,0.1-0.3c0-0.1,0.1-0.1,0.1-0.2c0.1-0.1,0.1-0.1,0.2-0.1s0.1,0.1,0.2,0.1h0.2c0.1,0,0.1-0.1,0.1,0
	s0,0.1,0.1,0.1s0.2,0,0.2,0s0-0.1,0.1-0.1h0.2c0.3,0,0.5-0.2,0.7-0.3c0.1-0.1,0.2-0.2,0.3-0.4c0.1-0.1,0.2-0.1,0.3-0.2
	s0-0.2,0.1-0.2s0.1,0,0.2-0.1s0.1,0,0.1-0.1s0-0.1,0.1-0.2s0.1-0.1,0.2,0s0.1,0.1,0.2,0.1s0.1,0,0.2,0s0.1,0.1,0.1,0.1
	s0.1,0.1,0.2,0s0.2-0.2,0.3-0.3c0.1,0,0.1,0,0.1-0.1s0-0.1,0.1-0.2s0,0,0,0l0.1-0.1c0-0.1,0-0.1,0-0.2c0.1-0.1,0.2-0.3,0.3-0.5
	c0-0.1,0.1-0.3,0.1-0.4s0-0.2,0-0.2c0-0.1,0-0.2,0-0.3c0-0.1,0-0.2-0.1-0.2c0-0.1-0.1-0.2-0.1-0.2s0,0,0-0.1s0.1-0.2,0.2-0.2
	c0.1-0.1,0.2-0.2,0.2-0.2c0-0.1,0.1-0.2,0.1-0.2c0.1,0,0.1,0,0.2,0s0.1,0.1,0.2,0.2s0.1,0.1,0.1,0.1s0.1,0.1,0.1,0s-0.1-0.1,0-0.2
	c0.1-0.2,0.2-0.3,0.4-0.4c0.1-0.1,0.3-0.2,0.4-0.2h0.4c0,0,0.1-0.1,0-0.1s-0.2-0.1-0.3-0.1s-0.3-0.1-0.3-0.2s0-0.2,0-0.3
	c0-0.1,0-0.5,0.1-0.5s0-0.2,0.1,0s0.2,0.3,0.3,0.4c0.1,0,0.1,0,0.2,0c0,0,0.1,0,0.1-0.1s0-0.1-0.1-0.1c0,0-0.1,0-0.2-0.1
	c0-0.1-0.1-0.1-0.1-0.2s-0.1-0.1-0.1-0.1l-0.1-0.1c0,0-0.1-0.1-0.1-0.2s0-0.1,0-0.2s0.1-0.1,0.1-0.2s0-0.1,0-0.1
	c-0.1,0-0.1,0-0.2-0.1l-0.2-0.1l-0.1-0.1l0.1-0.1L385,22l0.3,0.1c0.1,0,0.1,0,0.2,0.1c0.1,0,0.1,0,0.1,0.1s0,0-0.1,0.1
	s-0.1,0.1,0,0.1s0.1,0.1,0.1,0.1s0,0,0,0.1s0,0.1,0,0.2s0,0.1,0.1,0.2s0.1,0.1,0.2,0.1h0.1c0.1,0,0.1,0,0.1,0.1s0,0.1,0.1,0.2
	s0.1,0.1,0.1,0.1v-0.1c0-0.1,0-0.1,0-0.2s0-0.1,0-0.2s0-0.1,0.1-0.2l0.1-0.1c0.1,0,0.1-0.1,0.2-0.1s0.2,0,0.2-0.1s0-0.1-0.1-0.1
	s-0.1-0.1-0.2-0.2s-0.1-0.1,0-0.1s0-0.2,0.1-0.2s0.2,0,0.3,0.1c0.1,0.1,0,0,0.1,0.1s0.2,0,0.2,0V22c0.1-0.1,0.2-0.1,0.3-0.2h0.1h0.1
	h0.1h0.1l0.1,0.1c0,0,0,0.1-0.1,0.1c0,0-0.1,0.1,0,0.1c0.1,0.1,0.2,0.1,0.3,0.1c0.1,0,0.2,0,0.3,0.1c0.1,0,0.1,0.1,0.1,0.1
	c0.1,0,0.2,0,0.2-0.1c0.2-0.2,0.4-0.3,0.6-0.3c0.1,0,0.2,0,0.3,0c0.1,0,0.2,0.1,0.3,0c0.1-0.1,0.2-0.2,0.2-0.4c0-0.1,0-0.1,0-0.2
	s-0.1-0.1-0.1-0.2s0-0.2,0.1-0.2s0.1-0.1,0.1-0.2s0-0.2,0-0.3c0,0,0,0,0-0.1c0.1-0.1,0.2-0.2,0.3-0.3c0-0.1,0.1-0.2,0.1-0.2h-0.1
	c0,0-0.1,0-0.2,0c0,0-0.1-0.1-0.1-0.2s0.1-0.1,0.2-0.2c0.1,0,0.1-0.1,0.2,0s0.2,0,0.3,0s0-0.2,0-0.2c0.1,0,0.1,0,0.2,0.1h0.1
	c0.1,0,0.1,0,0.2,0s0.1,0,0.2,0s0.2,0,0.3,0l0.3-0.1c0.1,0,0.2-0.1,0.2-0.2s0-0.1,0-0.1c0.1,0,0.1-0.1,0.1-0.2c0,0,0-0.2,0.1-0.2
	h0.7c0.1,0,0.2-0.1,0.3-0.1c0.1,0,0-0.1,0.1-0.1s0-0.1,0.1-0.1s0.1,0,0.1-0.1c0.1-0.1,0.1-0.1,0.1-0.2s0-0.1,0-0.2s0-0.3,0-0.4
	s0.2-0.2,0.2-0.2l0.1-0.2c0-0.1,0-0.2,0.1-0.3s0.1-0.1,0.1-0.2s0-0.1,0-0.2s0-0.1,0.1,0s0,0.1,0.1,0.2s0.1,0.1,0.1,0
	s0.1-0.1,0.1-0.1s0.1,0,0.2,0.1c0.1,0,0.2,0,0.2,0c0.1,0,0.2,0,0.2,0s0-0.1,0.1-0.1C396.1,16.4,396.1,16.4,396.1,16.3z"/>
<path d="M374.5,104.5V65.1h14.3v39.4H374.5z"/>
<path d="M374.6,38.7V37h14.3v1.7H374.6z"/>
<path class="st0" d="M77.7,62.9L77.7,62.9c-0.3,0.4-0.7,0.6-1,0.4c-0.1-0.1-0.2-0.2-0.3-0.3c-0.5-0.8-1-1.6-1.6-2.4L74,59.3h-4.1
	v45.2h14.3V59.3H80L77.7,62.9z"/>
<path d="M84.3,45.3c-1.4-4-5.9-6-9.8-4.6c-0.1,0.1-0.3,0.1-0.4,0.2c-2.4,1-4.2,3.2-4.6,5.8c-0.4,1.9,0,3.8,1.1,5.4
	c1.4,2.3,2.9,4.5,4.3,6.8c0.5,0.8,1,1.6,1.6,2.4c0.2,0.3,0.6,0.5,1,0.3c0.1-0.1,0.2-0.2,0.3-0.3c0,0,0-0.1,0.1-0.1
	c1.9-3,3.9-6,5.8-9C84.9,50.1,85.1,47.6,84.3,45.3z M77,51.5c-1.9,0-3.5-1.6-3.5-3.6c0-1.9,1.6-3.5,3.6-3.5c1.9,0,3.5,1.6,3.5,3.6
	l0,0C80.5,49.9,78.9,51.5,77,51.5z"/>
</svg>
